<?xml version="1.0" encoding="UTF-8"?>
<svg xmlns="http://www.w3.org/2000/svg" viewBox="0 0 1074 450">
  <defs>
    <style>
      .cls-1 {
        fill: #fff;
      }

      .cls-1, .cls-2 {
        stroke: #666;
        stroke-miterlimit: 10;
        stroke-width: 2px;
      }

      .cls-3 {
        font-family: AdobeSongStd-Light-GBpc-EUC-H, 'Adobe Song Std';
        font-size: 14px;
        font-weight: 300;
      }

      .cls-2 {
        fill: none;
      }
    </style>
  </defs>
  <g id="Layer_3" data-name="Layer 3">
    <line class="cls-1" x1="106.97" y1="153.65" x2="942.6" y2="151.5"/>
    <line class="cls-1" x1="107" y1="246.5" x2="943" y2="244.5"/>
    <line class="cls-1" x1="107" y1="194.5" x2="943" y2="192.5"/>
    <line class="cls-1" x1="107" y1="286.5" x2="943" y2="284.5"/>
    <polyline class="cls-2" points="148.18 191.72 167.88 123.27 203 123.27"/>
    <polyline class="cls-2" points="203 191.72 218 139.5 249.76 139.5"/>
    <polyline class="cls-2" points="265.32 197.2 284.45 120.73 326.82 120.73"/>
    <polyline class="cls-2" points="333.05 153.65 349.34 102.25 385.18 102.25"/>
    <polyline class="cls-2" points="333.05 179.58 359.11 127.95 400.25 127.95"/>
    <polyline class="cls-2" points="346.37 210.57 372.87 179.5 430 179.65"/>
    <line class="cls-2" x1="404.2" y1="216.82" x2="388.18" y2="179.5"/>
    <polyline class="cls-2" points="511.71 266.91 530.1 311.17 574.13 311.17"/>
    <polyline class="cls-2" points="580.24 232.1 610 296.5 650.31 296.5"/>
    <polyline class="cls-2" points="667.85 198.94 685.8 295.62 729.26 295.62"/>
    <polyline class="cls-2" points="787.86 196.46 775.73 113.44 710.24 113.44"/>
    <polyline class="cls-2" points="578.48 210.57 561.9 127.95 495.78 127.95"/>
    <polyline class="cls-2" points="552.06 195.97 545.2 174.5 493.31 174.5"/>
    <polyline class="cls-2" points="502.36 238.88 468.81 307.61 435.46 307.61"/>
    <polyline class="cls-2" points="794.69 241.43 814.79 295.62 869.61 295.62"/>
    <polyline class="cls-2" points="827 214.54 816.94 133.03 787.86 133.03"/>
    <polyline class="cls-2" points="858.2 169.26 854 142.5 827 142.5"/>
    <polyline class="cls-2" points="892.55 232.1 907.68 137.98 965.22 137.98"/>
    <text class="cls-3" transform="translate(168.44 117.88)"><tspan x="0" y="0">Crossbar</tspan></text>
    <text class="cls-3" transform="translate(220.2 133.89)"><tspan x="0" y="0">Beak</tspan></text>
    <text class="cls-3" transform="translate(287.62 113.88)"><tspan x="0" y="0">Shouder</tspan></text>
    <text class="cls-3" transform="translate(351.47 97.79)"><tspan x="0" y="0">Stem</tspan></text>
    <text class="cls-3" transform="translate(359.48 124.17)"><tspan x="0" y="0">Ascender</tspan></text>
    <text class="cls-3" transform="translate(372.77 175.93)"><tspan x="0" y="0">Counter</tspan></text>
    <text class="cls-3" transform="translate(441.4 322.12)"><tspan x="0" y="0">Link</tspan></text>
    <text class="cls-3" transform="translate(498.53 168.79)"><tspan x="0" y="0">Ear</tspan></text>
    <text class="cls-3" transform="translate(499.31 120.81)"><tspan x="0" y="0">Eye</tspan></text>
    <text class="cls-3" transform="translate(532.7 325.55)"><tspan x="0" y="0">Loop</tspan></text>
    <text class="cls-3" transform="translate(613.49 309.61)"><tspan x="0" y="0">Bowl</tspan></text>
    <text class="cls-3" transform="translate(690.42 308.2)"><tspan x="0" y="0">Stress</tspan></text>
    <text class="cls-3" transform="translate(824.11 138.18)"><tspan x="0" y="0">Tittle</tspan></text>
    <text class="cls-3" transform="translate(947.39 155.62)"><tspan x="0" y="0">CAP-HEIGHT</tspan></text>
    <text class="cls-3" transform="translate(948.73 192.81)"><tspan x="0" y="0">X-HEIGHT</tspan></text>
    <text class="cls-3" transform="translate(948.22 243.77)"><tspan x="0" y="0">BASELINE</tspan></text>
    <text class="cls-3" transform="translate(907.4 133.6)"><tspan x="0" y="0">Vertex</tspan></text>
    <text class="cls-3" transform="translate(714.16 108.93)"><tspan x="0" y="0">Crossbar</tspan></text>
    <text class="cls-3" transform="translate(819.1 307.61)"><tspan x="0" y="0">Final</tspan></text>
    <text class="cls-3" transform="translate(785 126.59)"><tspan x="0" y="0">Spine</tspan></text>
    <text class="cls-3" transform="translate(946.08 284.74)"><tspan x="0" y="0">DESCENDER LINE</tspan></text>
  </g>
  <g id="Layer_2" data-name="Layer 2">
    <path d="M629.65,153.3c-5.3,3.13-10.05,6.53-12.45,12.44-3.28,8.09-2.57,18.07-2.53,26.6.08,19.06,1.11,38.11,2.89,57.08-.06-.66,7.96-2.75,7.79-4.5-1.48-15.74-2.43-31.53-2.76-47.34-.17-7.84-.28-15.7.16-23.53.36-6.24,1.14-16.41,7.3-20.05.34-.2,3.93-2.19,3.69-2.6s-4,1.84-4.1,1.9h0Z"/>
    <path d="M609.62,197.9c10.71-.2,21.42-.23,32.13-.1,1.5.02,3.71-1.76,4.94-2.52.45-.28,2.82-2,2.47-2-10.71-.13-21.42-.1-32.13.1-1.54.03-3.67,1.74-4.94,2.52-.46.28-2.8,2.01-2.47,2h0Z"/>
    <path d="M629.13,154.25c9.25-.49,13.96,8.45,17.28,15.64.14.3,8.16-3.71,7.79-4.5-3.44-7.45-8.2-16.17-17.67-15.67-1.58.08-3.62,1.72-4.94,2.52-.47.29-2.78,2.02-2.47,2h0Z"/>
    <path d="M671.34,193.17c-6.16,2.2-12.89,6.05-16.69,11.5-5.31,7.61-5.12,17.6-2.44,26.16,2.53,8.09,8.14,14.14,16.92,14.79,6.95.52,13.2-2.85,18.81-6.59.82-.54,2.37-1.13,1.12-1.29s-4.41,2.29-5.4,2.95c-.75.5-4.46.47-5.58.46-2.61-.02-5.24-.56-7.63-1.62-4.77-2.11-7.84-6.26-9.68-11.02-1.99-5.15-2.98-10.92-2.49-16.44.26-2.95.96-5.79,2.24-8.47.64-1.35,2.68-5.62,4.3-6.2,1.89-.67,3.75-1.83,5.4-2.95.37-.25,2.7-1.85,1.12-1.29h0Z"/>
    <path d="M664.15,198.69c4.81-1.1,11.68-2.93,16.17.06,3.73,2.48,5.37,8.38,6.87,12.35,3.99,10.56,3.72,21.38-4.8,29.64-.26.25,2.64-.96,2.97-1.14,1.58-.84,3.35-1.75,4.65-3.01,8.56-8.3,9.01-19.27,4.98-29.99-1.53-4.06-3.32-10.49-7.44-12.73-4.63-2.51-11.26-.8-15.99.29-2.54.58-5.85,4.17-7.41,4.53h0Z"/>
    <path d="M706.34,194.63c0,17.64,0,35.28,0,52.92,0-.93,7.79-2.53,7.79-4.5,0-17.64,0-35.28,0-52.92,0,.93-7.79,2.53-7.79,4.5h0Z"/>
    <path d="M717.86,197.88c1.52-1.4,5.79-1.43,7.65-1.38,3.02.08,6.09.9,8.5,2.77,3.67,2.85,5.08,7.49,5.67,11.91,1.58,11.91.71,24.48.9,36.48-.01-.88,7.83-2.56,7.79-4.5-.16-9.82-.26-19.64-.48-29.46-.14-6.14-.37-13.46-5.08-18.04-9.12-8.89-24.98-.67-32.59,6.37-.25.23,2.63-.96,2.97-1.14,1.6-.85,3.31-1.77,4.65-3.01h0Z"/>
    <path d="M855.64,169.39c0,5.54,0,11.09,0,16.63,0,.11,3.8-1.72,4.1-1.9.63-.36,3.69-1.71,3.69-2.6,0-5.54,0-11.09,0-16.63,0-.11-3.8,1.72-4.1,1.9-.63.36-3.69,1.71-3.69,2.6h0Z"/>
    <path d="M856.82,194.93c0,17.62,0,35.24,0,52.86,0-.93,7.79-2.53,7.79-4.5,0-17.62,0-35.24,0-52.86,0,.93-7.79,2.53-7.79,4.5h0Z"/>
    <path d="M880.1,192.97c6.29,17.05,5.62,35.7,11.88,52.76.03.09,8.17-3.47,7.79-4.5-6.26-17.06-5.6-35.7-11.88-52.76-.03-.09-8.17,3.47-7.79,4.5h0Z"/>
    <path d="M898.82,241.55c7.77-18.37,16.75-36.19,25.51-54.09-.18.36-3.53,1.57-4.1,1.9-1.07.62-3.12,1.42-3.69,2.6-8.76,17.9-17.75,35.72-25.51,54.09.13-.3,3.58-1.6,4.1-1.9,1.02-.59,3.2-1.44,3.69-2.6h0Z"/>
    <path d="M248.95,196.79c0,17.51,0,35.01,0,52.52,0-.93,7.79-2.53,7.79-4.5,0-17.51,0-35.01,0-52.52,0,.93-7.79,2.53-7.79,4.5h0Z"/>
    <path d="M256.9,200.75c5.36-.26,10.42-5.21,15.85-2.13,4.47,2.53,4.79,8.91,5.11,13.4.9,12.63-.65,25.28.09,37.92-.04-.76,7.9-2.66,7.79-4.5-.78-13.28,1.01-26.6-.25-39.86-.45-4.71-1.47-10.79-6.83-12.21-5.22-1.39-9.37,2.62-14.36,2.86-1.57.08-3.64,1.72-4.94,2.52-.47.29-2.78,2.02-2.47,2h0Z"/>
    <path d="M288.26,197.98c-.68.7,1.61-.02,1.93-.08,1.16-.22,2.38-.49,3.57-.49,3.01,0,5.36,1.54,7.53,3.46,3.85,3.41,3.76,8.27,3.79,13.07.03,5.85.04,11.7-.22,17.54-.28,6.09-1.56,12.33-.4,18.38-.07-.38,8.08-3,7.79-4.5-1.58-8.23.49-17.39.61-25.76.09-6.54,2.01-17.17-2.86-22.4-7.95-8.56-22.43-2.21-29.36,4.95-.27.28,2.66-.97,2.97-1.14,1.55-.83,3.41-1.73,4.65-3.01h0Z"/>
    <path d="M123.67,154.33c0,30.3,0,60.61,0,90.91,0-.93,7.79-2.53,7.79-4.5,0-30.3,0-60.61,0-90.91,0,.93-7.79,2.53-7.79,4.5h0Z"/>
    <path d="M125.61,196.89c15.48,0,30.95,0,46.43,0,1.51,0,3.69-1.75,4.94-2.52.45-.28,2.81-2,2.47-2-15.48,0-30.95,0-46.43,0-1.51,0-3.69,1.75-4.94,2.52-.45.28-2.81,2-2.47,2h0Z"/>
    <path d="M172.42,153.75c0,30.82,0,61.64,0,92.46,0-.93,7.79-2.53,7.79-4.5,0-30.82,0-61.64,0-92.46,0,.93-7.79,2.53-7.79,4.5h0Z"/>
    <path d="M224.14,211.93c-10.33,3.91-23.36,10.84-29.38,20.54-3.24,5.21-1.72,12.57,3.75,15.48,5.5,2.93,13.8-2.42,18.93-4.36,1.89-.71,3.74-1.82,5.4-2.95.36-.24,2.7-1.88,1.12-1.29-6.62,2.51-18.68,9.37-22.38-.79-3.72-10.22,7.83-19.29,16.04-22.4,1.89-.72,3.74-1.82,5.4-2.95.36-.24,2.7-1.88,1.12-1.29h0Z"/>
    <path d="M198.22,199.15c5.61-3.37,13.88-3.12,18.81,1.28,3.95,3.53,5.54,8.77,6.25,13.86,1.59,11.42.97,23.39.57,34.87.04-1.02,7.72-2.46,7.79-4.5.28-7.99.39-16,.16-24-.2-7.07-.23-15.02-4.08-21.22-7.74-12.46-22.37-5.55-31.97.22-.4.24-2.94,1.7-2.47,2,.59.39,4.5-2.26,4.94-2.52h0Z"/>
    <path d="M329.38,154.18v96.15c0-.93,7.79-2.53,7.79-4.5v-96.15c0,.93-7.79,2.53-7.79,4.5h0Z"/>
    <path d="M336.49,202.07c1.51,0,3.69-1.75,4.94-2.52.45-.28,2.81-2,2.47-2-1.51,0-3.69,1.75-4.94,2.52-.45.28-2.81,2-2.47,2h0Z"/>
    <path d="M332.02,203.83c6.44-.73,11.68-5.12,18.04-5.9,6.37-.78,10.97,3.72,12.51,9.56,1.53,5.79.52,12.27-.27,18.11-.39,2.89-.82,5.81-1.5,8.64-.32,1.35-.68,2.72-1.21,4.01-.5,1.21-3.52,4.51-.33,2.73-.93.52-4.41,1.91-4.65,3.01-.11.49,2.75-1.02,2.97-1.14,4.73-2.63,8.48-5.08,10.28-10.42,2.38-7.02,3.19-15.5,3.22-22.87.03-6.65-2.4-14.94-10.03-16.15-7.62-1.21-14.33,5.06-21.62,5.89-1.64.19-3.56,1.67-4.94,2.52-.49.3-2.74,2.03-2.47,2h0Z"/>
    <path d="M330.89,239.25c4.82,6.18,16.24,7.57,23.34,5.41,1.74-.53,3.39-1.57,4.94-2.52.57-.35,2.58-2.04,2.47-2-6.94,2.11-18.18.74-22.96-5.39-.61-.78-7.92,4.33-7.79,4.5h0Z"/>
    <path d="M421.43,194.45c0,17.42,0,34.85,0,52.27,0-.93,7.79-2.53,7.79-4.5,0-17.42,0-34.85,0-52.27,0,.93-7.79,2.53-7.79,4.5h0Z"/>
    <path d="M382.98,193.97c-.05,7.61-.43,15.29-.11,22.9.16,3.92.88,7.74.9,11.67.02,3.48-.73,7.52.69,10.76,6.69,15.22,24.86,2.92,34.59-1.49,1.77-.8,4.14-1.79,5.51-3.18.84-.85,1.44-1.28-.29-.5-6.27,2.84-14.31,8.25-21.31,8.16-6.61-.09-11.35-5.67-11.44-12.07-.21-13.61-.83-27.1-.74-40.75,0,.94-7.78,2.51-7.79,4.5h0Z"/>
    <path d="M446.33,196.87c0,18.52,0,37.04,0,55.56,0-.93,7.79-2.53,7.79-4.5,0-18.52,0-37.04,0-55.56,0,.93-7.79,2.53-7.79,4.5h0Z"/>
    <path d="M460.24,201.95c2.12-2.49,8.53-4.06,11.85-2.49,3.34,1.59,3.17,6.58,5.22,9.28.58.76,7.94-4.3,7.79-4.5-2.21-2.91-1.95-8.22-5.9-9.45-2.99-.93-7.08.09-9.97.98-6.02,1.85-12.52,5.52-16.61,10.34-.28.33,2.69-.99,2.97-1.14,1.48-.8,3.53-1.69,4.65-3.01h0Z"/>
    <path d="M512.68,195.85c-8.1,3.22-14.01,9.4-17.15,17.65-1.45,3.82,1.3,10.24,3.76,13.3,3.53,4.4,9.88,4.1,15,4.7,1.2.14,3.11-1.33,4.1-1.9.59-.34,3.22-2.66,3.69-2.6-8.04-.94-14.39-1.15-17.58-9.56-1.62-4.26-2.1-6.64.13-10.68,1.07-1.93,2.23-3.85,3.39-5.73.43-.74.89-1.45,1.38-2.15,1.86-2.06.78-1.65-3.24,1.21,1.89-.75,3.73-1.81,5.4-2.95.35-.24,2.69-1.91,1.12-1.29h0Z"/>
    <path d="M513.72,195.89c-3.87,1.76-4.47,2.35-1.79,1.77,1.44-.06,2.85.06,4.26.34,1.45.23,3.08.49,4.37,1.19,2.79,1.52,5.02,4.84,6.62,7.47,1.74,2.87,2.57,5.89,1.63,9.18-.83,2.89-4.22,8.56-6.82,10.18-.39.25-2.95,1.69-2.47,2,.59.38,4.51-2.26,4.94-2.52,4.54-2.83,8.26-6.45,10.86-11.21,3.06-5.6,1.16-10.49-2.54-15.22-7.21-9.22-18.09-6.14-25.99.34-1.37,1.12,1.48-.23,1.68-.33,1.8-.87,3.7-1.93,5.26-3.2h0Z"/>
    <path d="M540.41,195.72l.75-.7c-1.55,1-3.1,2.01-4.65,3.01,2.15-1.15,5.49-1.9,7.93-1.67,2.21.21,4.23,2.02,5.48,3.79l7.79-4.5-.48-.54c-.79-.88-7.8,4.5-7.79,4.5l.48.54c.68.75,7.93-4.31,7.79-4.5-3.28-4.63-7.77-4.4-12.73-2.65-4.25,1.5-8.89,3.78-12.19,6.87-.25.23,2.63-.96,2.97-1.14,1.59-.86,3.32-1.77,4.65-3.01h0Z"/>
    <path d="M522.38,226.14c-6.31,2.2-13.89,5.86-18.53,10.82,1.06-1.13.93-.33-.38.51-.65.41-1.33.77-1.98,1.19-.87.56-1.85,1.12-2.54,1.92-2.13,2.47-2.75,7.21.55,8.61,3.71,1.58,7.79.61,11.66.58,5.06-.03,11.44.71,16.17,2.67,3.98,1.65,6.37,5.4,7.28,9.51.48,2.17.54,4.43.44,6.64-.2,4.69-1.03,7.31-5.86,9.69-1.26.62-4.68,1.89-5.26,3.2-.49,1.1.7.15,1.68-.33,4.81-2.37,12.31-5.49,15.55-10.02,3.59-5.02,2.05-15.19-1.49-19.72-4.16-5.32-13.9-6.11-20.2-6.16-4.02-.03-8.32,1.07-12.17-.56-3.33-1.42-2.78-6.33-.31-8.65-1.2.81-2.41,1.62-3.61,2.43,4.08-2.42,8.13-6.57,12.47-8.08,1.89-.66,3.76-1.83,5.4-2.95.37-.25,2.71-1.84,1.12-1.29h0Z"/>
    <path d="M510.05,250.06c-11.4.43-20.96,12.73-20.63,23.85.21,7.02,10.52,9.29,16.17,9.75,7.04.58,14.53.16,21.25-2.06,1.89-.62,3.77-1.84,5.4-2.95.38-.26,2.71-1.81,1.12-1.29-9.37,3.09-22.37,3.28-31.23-1.41-4.35-2.3-5.48-5.06-4.56-9.88.53-2.75,1.65-5.33,2.91-7.81.63-1.24,1.29-2.46,2.01-3.66.1-.17,1.67-2.44.77-1.89-1.65.84-3.29,1.68-4.94,2.52,1.51-.45,2.75-.58,4.32-.64,1.56-.06,3.65-1.72,4.94-2.52.46-.29,2.79-2.01,2.47-2h0Z"/>
    <path d="M576.86,196.67c-5.44,1.16-10.04,5.36-13.43,9.54-5.65,6.96-5.72,14.21-5.16,22.86.26,4.07-.14,8.54,3.2,11.3,3.58,2.96,6.78,4.28,11.36,4.46,8.5.34,15.24-2.41,22.45-6.6.34-.2,3.93-2.19,3.69-2.6s-4,1.84-4.1,1.9c-5.16,3.01-14.77,4.35-20.39,1.82-2.06-.93-4.61-2.57-6.18-4.21-1.89-1.97-1.78-5.04-2.01-7.62-.93-10.54-1.25-22.92,8.72-29.71l-6.6,3.61,1.05-.23c2.55-.54,5.86-4.2,7.41-4.53h0Z"/>
    <path d="M561.71,225.26c9.88-2.82,19.77-5.64,29.65-8.46,1.74-.5,3.41-1.58,4.94-2.52.56-.35,2.6-2.04,2.47-2-9.88,2.82-19.77,5.64-29.65,8.46-1.74.5-3.41,1.58-4.94,2.52-.56.35-2.6,2.04-2.47,2h0Z"/>
    <path d="M570.42,199.75c5.31-.28,9.87.25,14.11,3.7,3.91,3.19,6.32,7.68,8.5,12.14.17.36,8.15-3.77,7.79-4.5-2.39-4.89-5.08-9.82-9.65-13.01-4.11-2.87-8.52-3.11-13.34-2.86-1.58.08-3.62,1.72-4.94,2.52-.47.29-2.78,2.02-2.47,2h0Z"/>
    <path d="M758.99,198.2c12.49,0,24.97,0,37.46,0,1.51,0,3.69-1.75,4.94-2.52.45-.28,2.81-2,2.47-2-12.49,0-24.97,0-37.46,0-1.51,0-3.69,1.75-4.94,2.52-.45.28-2.81,2-2.47,2h0Z"/>
    <path d="M771.83,176.69c.26,15.95.52,31.89.79,47.84.06,3.9.13,7.81.19,11.71.05,2.99-.73,7.24,1.89,9.33,4.43,3.52,12.4-.19,16.72-2.01,1.88-.79,3.72-1.81,5.4-2.95.35-.24,2.67-1.94,1.12-1.29-4.58,1.93-15.17,6.26-17.17-1.09-.9-3.32-.2-7.91-.25-11.37l-.18-10.74c-.24-14.64-.48-29.29-.72-43.93.01.88-7.83,2.57-7.79,4.5h0Z"/>
    <path d="M819.64,193.19c-3.72,1.19-8.12,3.29-10.37,6.59-4.19,6.13.61,11.3,5.5,15.13,4.9,3.84,11.71,5.09,15.75,10.03,3.1,3.79,6.32,15.61,1.3,18.48-.34.2-3.93,2.2-3.69,2.6s4-1.84,4.1-1.9c2.87-1.64,8.51-3.76,9.54-7.27,1.53-5.25-.61-13.69-4.41-17.45-5.17-5.12-31.88-14.36-19.12-25.35-2.39,1.34-4.78,2.69-7.17,4.03l1.16-.37c1.74-.56,3.39-1.56,4.94-2.52.57-.36,2.57-2.04,2.47-2h0Z"/>
    <path d="M805.06,236.65c3.31,3.27,7,6.39,11.34,8.19,4.29,1.78,8.89,1.71,13.45,1.58,1.55-.04,3.65-1.73,4.94-2.52.46-.29,2.79-2.01,2.47-2-10.37.3-17.09-2.51-24.41-9.74-.95-.94-7.67,4.62-7.79,4.5h0Z"/>
    <path d="M815.58,195.97c1.57-.26,3.16-.56,4.74-.7,2.14-.18,2.58.29,4.26,1.22,2.76,1.53,4.09,2.93,5.52,5.81.18.37,8.15-3.79,7.79-4.5-1.56-3.14-3.16-4.52-6.16-6.19-2.82-1.57-5.63-.68-8.75-.17-1.69.28-3.5,1.64-4.94,2.52-.51.31-2.7,2.04-2.47,2h0Z"/>
  </g>
</svg>