<svg xmlns="http://www.w3.org/2000/svg" version="1.1" viewBox="-5.0 -10.0 110.0 135.0">
 <path d="m52.609 35.805-3.0703-3.0703c-3.6914 3.6914-3.6914 9.6719 0 13.363l3.0703 3.0703c3.6914-3.6914 3.6914-9.6719 0-13.363z"/>
 <path d="m71.633 65.934-9.8281 10.086h-4.1758c0.38281-0.78906 0.59766-1.668 0.59766-2.6016 0-2.5586-1.5977-4.7266-3.8828-5.5703v-7.6211c4.4102-0.79687 7.7617-4.6367 7.7617-9.2773v-4.3359c-5.2188 0-9.4453 4.2305-9.4453 9.4453 0-5.2188-4.2305-9.4453-9.4453-9.4453v4.3359c0 4.6406 3.3516 8.4805 7.7617 9.2773v7.0742l-12.219-1.1562c-5.1289-0.48047-10.18 1.3438-13.805 5.0234l-20.227 20.52h25.145l3.25-3.4297h28.316c2.332 0 4.6016-0.95703 6.2266-2.6172l11.805-12.047c1.0273-1.0508 1.5859-2.4336 1.5664-3.9023-0.019531-1.4727-0.60938-2.8438-1.6641-3.8672-2.1602-2.0977-5.6328-2.043-7.7383 0.11328zm-58.855 22.387 7.1836-7.293 9.7734 5.9062-1.3125 1.3828h-15.645zm64.285-17.086-11.809 12.047c-0.99219 1.0195-2.3867 1.6055-3.8203 1.6055h-28.566l-10.473-6.3281 4.957-5.0273c2.9141-2.9531 6.9297-4.4141 11.09-4.0391l14.062 1.332c1.3438 0.12891 2.3555 1.2422 2.3555 2.5938 0 1.4336-1.1641 2.6016-2.6016 2.6016h-16.184v3.3672h27.148l10.816-11.102c0.8125-0.83203 2.1484-0.85156 2.9805-0.046875 0.40625 0.39844 0.63281 0.92578 0.64062 1.4922 0.007813 0.56641-0.20312 1.1016-0.60156 1.5039z"/>
 <path d="m87.438 51.211c-2.6758-14.289-14.039-25.641-28.309-28.289-0.50781-3.1211-3.2031-5.5195-6.4648-5.5195-3.2617 0-5.9609 2.3984-6.4648 5.5195-14.27 2.6523-25.625 14.004-28.301 28.289-3.1172 0.51562-5.5078 3.207-5.5078 6.4648 0 3.625 2.9453 6.5742 6.5742 6.5742s6.5742-2.9453 6.5742-6.5742c0-2.8164-1.7891-5.2031-4.2773-6.1406 2.5-12.695 12.59-22.777 25.27-25.25 0.9375 2.4844 3.3203 4.2656 6.1328 4.2656s5.1953-1.7812 6.1328-4.2695c12.684 2.4727 22.773 12.555 25.277 25.25-2.4961 0.93359-4.2891 3.3203-4.2891 6.1406 0 3.625 2.9453 6.5742 6.5742 6.5742s6.5742-2.9453 6.5742-6.5742c0-3.2578-2.3828-5.9453-5.4961-6.4648zm-68.473 9.668c-1.7656 0-3.2031-1.4375-3.2031-3.2031s1.4375-3.207 3.2031-3.207 3.2031 1.4414 3.2031 3.207-1.4375 3.2031-3.2031 3.2031zm33.695-33.695c-1.7656 0-3.2031-1.4375-3.2031-3.207 0-1.7695 1.4375-3.2031 3.2031-3.2031s3.2031 1.4375 3.2031 3.2031c0 1.7656-1.4375 3.207-3.2031 3.207zm33.695 33.695c-1.7656 0-3.2031-1.4375-3.2031-3.2031s1.4375-3.207 3.2031-3.207 3.2031 1.4414 3.2031 3.207-1.4375 3.2031-3.2031 3.2031z"/>
 <path d="m50.977 9.9961h3.3672v5.5h-3.3672z"/>
 <path d="m41.57 15.094 2.3828-2.3828 3.6758 3.6758-2.3828 2.3828z"/>
 <path d="m57.691 16.387 3.6797-3.6758 2.3789 2.3828-3.6797 3.6758z"/>
<text x="0.0" y="117.5" font-size="5.0" font-weight="bold" font-family="Arbeit Regular, Helvetica, Arial-Unicode, Arial, Sans-serif" fill="#000000">Created by IGraphics</text><text x="0.0" y="122.5" font-size="5.0" font-weight="bold" font-family="Arbeit Regular, Helvetica, Arial-Unicode, Arial, Sans-serif" fill="#000000">from Noun Project</text></svg>